<svg width="0" height="0" class="hidden"
  xmlns="http://www.w3.org/2000/svg">


  <svg
    xmlns="http://www.w3.org/2000/svg" viewBox="0 0 24 24" fill="none" id='home'>
    <path
      d="M9 22V12H15V22M3 9L12 2L21 9V20C21 20.5304 20.7893 21.0391 20.4142 21.4142C20.0391 21.7893 19.5304 22 19 22H5C4.46957 22 3.96086 21.7893 3.58579 21.4142C3.21071 21.0391 3 20.5304 3 20V9Z"
      stroke-width="2" stroke-linecap="round" stroke-linejoin="round" />
  </svg>

  <svg
    xmlns="http://www.w3.org/2000/svg" viewBox="0 0 24 24" fill="none" id='arrow-left'>
    <path d="M19 12H5M5 12L12 19M5 12L12 5" stroke-width="2" stroke-linecap="round"
      stroke-linejoin="round" />
  </svg>

  <svg
    xmlns="http://www.w3.org/2000/svg" viewBox="0 0 24 24" fill="none" id='chevron-right'>
    <path d="M9 18L15 12L9 6" stroke-width="2" stroke-linecap="round" stroke-linejoin="round" />
  </svg>

  <svg
    xmlns="http://www.w3.org/2000/svg" viewBox="0 0 24 24" fill="none" id='close'>
    <path d="M18 6L6 18M6 6L18 18" stroke-width="2" stroke-linecap="round"
      stroke-linejoin="round" />
  </svg>


</svg>